<svg width="20" height="20" viewBox="0 0 20 20" fill="none" xmlns="http://www.w3.org/2000/svg">
<path d="M10.8287 10L17.3284 3.50029C17.5573 3.27145 17.5573 2.90044 17.3284 2.67163C17.0996 2.44282 16.7286 2.44279 16.4998 2.67163L10 9.17138L3.50029 2.67163C3.27145 2.44279 2.90044 2.44279 2.67163 2.67163C2.44282 2.90047 2.44279 3.27148 2.67163 3.50029L9.17135 10L2.67163 16.4998C2.44279 16.7286 2.44279 17.0996 2.67163 17.3284C2.78603 17.4428 2.936 17.5 3.08597 17.5C3.23595 17.5 3.38589 17.4428 3.50032 17.3284L10 10.8287L16.4997 17.3284C16.6141 17.4428 16.7641 17.5 16.9141 17.5C17.064 17.5 17.214 17.4428 17.3284 17.3284C17.5573 17.0996 17.5573 16.7286 17.3284 16.4998L10.8287 10Z" fill="#9F9F9F" stroke="#9F9F9F" stroke-width="0.5"/>
</svg>
