<svg width="56" height="58" viewBox="0 0 56 58" fill="none" xmlns="http://www.w3.org/2000/svg">
<g clip-path="url(#clip0)">
<path d="M20.5332 37.2795L23.3776 20.7307H27.8221L25.0665 37.2795H20.5332Z" fill="#BDBDBD"/>
<path d="M20.5332 37.2795L24.1776 20.7307H27.8221L25.0665 37.2795H20.5332Z" fill="#BDBDBD"/>
<path d="M41.1542 20.9169C40.2653 20.5491 38.8431 20.1814 37.0653 20.1814C32.6209 20.1814 29.4209 22.4798 29.4209 25.7896C29.4209 28.2719 31.6431 29.559 33.4209 30.3865C35.1986 31.2139 35.732 31.7655 35.732 32.501C35.732 33.6043 34.3098 34.1559 33.0653 34.1559C31.2875 34.1559 30.3098 33.8801 28.7986 33.2365L28.1764 32.9607L27.5542 36.7301C28.6209 37.1898 30.5764 37.6495 32.6209 37.6495C37.332 37.6495 40.4431 35.3511 40.4431 31.8575C40.4431 29.9268 39.2875 28.4558 36.6209 27.2606C35.0209 26.4331 34.0431 25.9735 34.0431 25.146C34.0431 24.4105 34.8431 23.675 36.6209 23.675C38.132 23.675 39.1987 23.9508 39.9987 24.3186L40.4431 24.5025L41.1542 20.9169Z" fill="#BDBDBD"/>
<path d="M41.1542 20.9169C40.2653 20.5491 38.8431 20.1814 37.0653 20.1814C32.6209 20.1814 30.2209 22.4798 30.2209 25.7896C30.2209 28.2719 31.6431 29.559 33.4209 30.3865C35.1986 31.2139 35.732 31.7655 35.732 32.501C35.732 33.6043 34.3098 34.1559 33.0653 34.1559C31.2875 34.1559 30.3098 33.8801 28.7986 33.2365L28.1764 32.9607L27.5542 36.7301C28.6209 37.1898 30.5764 37.6495 32.6209 37.6495C37.332 37.6495 40.4431 35.3511 40.4431 31.8575C40.4431 29.9268 39.2875 28.4558 36.6209 27.2606C35.0209 26.4331 34.0431 25.9735 34.0431 25.146C34.0431 24.4105 34.8431 23.675 36.6209 23.675C38.132 23.675 39.1987 23.9508 39.9987 24.3186L40.4431 24.5025L41.1542 20.9169Z" fill="#BDBDBD"/>
<path d="M48.8005 20.7307C47.7339 20.7307 46.9339 20.8227 46.4894 21.9259L39.8228 37.2795H44.6228L45.5116 34.5213H51.2005L51.7339 37.2795H56.0005L52.2672 20.7307H48.8005ZM46.7561 31.7632C47.0227 30.9358 48.5339 26.8905 48.5339 26.8905C48.5339 26.8905 48.8894 25.8792 49.1561 25.2357L49.4227 26.7986C49.4227 26.7986 50.3116 30.9358 50.4894 31.8552H46.7561V31.7632Z" fill="#BDBDBD"/>
<path d="M49.8672 20.7307C48.8005 20.7307 48.0005 20.8227 47.5561 21.9259L39.8228 37.2795H44.6228L45.5116 34.5213H51.2005L51.7339 37.2795H56.0005L52.2672 20.7307H49.8672ZM46.7561 31.7632C47.1116 30.8438 48.5339 26.8905 48.5339 26.8905C48.5339 26.8905 48.8894 25.8792 49.1561 25.2357L49.4227 26.7986C49.4227 26.7986 50.3116 30.9358 50.4894 31.8552H46.7561V31.7632Z" fill="#BDBDBD"/>
<path d="M12.3561 32.3152L11.9117 29.9248C11.1117 27.1667 8.5339 24.1327 5.68945 22.6617L9.68945 37.3717H14.4895L21.6895 20.823H16.8895L12.3561 32.3152Z" fill="#BDBDBD"/>
<path d="M12.3561 32.3152L11.9117 29.9248C11.1117 27.1667 8.5339 24.1327 5.68945 22.6617L9.68945 37.3717H14.4895L21.6895 20.823H17.7783L12.3561 32.3152Z" fill="#BDBDBD"/>
<path d="M0 20.7307L0.8 20.9146C6.48889 22.2937 10.4 25.7873 11.9111 29.9245L10.3111 22.1098C10.0444 21.0065 9.24444 20.7307 8.26667 20.7307H0Z" fill="#BDBDBD"/>
<path d="M0 20.7307C5.68889 22.1098 10.4 25.6953 11.9111 29.8325L10.4 23.305C10.1333 22.2017 9.24444 21.5582 8.26667 21.5582L0 20.7307Z" fill="#BDBDBD"/>
<path d="M0 20.7307C5.68889 22.1098 10.4 25.6953 11.9111 29.8325L10.8444 26.247C10.5778 25.1437 10.2222 24.0405 8.97778 23.5808L0 20.7307Z" fill="#BDBDBD"/>
<path d="M16.801 31.7631L13.7788 28.6372L12.3566 32.1308L12.001 29.8324C11.201 27.0743 8.62325 24.0403 5.77881 22.5693L9.77881 37.2793H14.5788L16.801 31.7631Z" fill="#BDBDBD"/>
<path d="M25.068 37.2791L21.2458 33.2339L20.5347 37.2791H25.068Z" fill="#BDBDBD"/>
<path d="M35.2875 31.5789C35.6431 31.9466 35.8209 32.2224 35.732 32.5902C35.732 33.6934 34.3098 34.245 33.0653 34.245C31.2875 34.245 30.3098 33.9692 28.7986 33.3257L28.1764 33.0499L27.5542 36.8193C28.6209 37.279 30.5764 37.7387 32.6209 37.7387C35.4653 37.7387 37.7764 36.9112 39.1098 35.4402L35.2875 31.5789Z" fill="#BDBDBD"/>
<path d="M40.4434 37.2789H44.6211L45.51 34.5208H51.1989L51.7323 37.2789H55.9989L54.4878 30.5675L49.1545 25.2351L49.4211 26.7061C49.4211 26.7061 50.31 30.8433 50.4878 31.7627H46.7545C47.11 30.8433 48.5322 26.89 48.5322 26.89C48.5322 26.89 48.8878 25.8787 49.1545 25.2351" fill="#BDBDBD"/>
</g>
<defs>
<clipPath id="clip0">
<rect width="56" height="57.9206" fill="white"/>
</clipPath>
</defs>
</svg>
